[hls @ 0000022dc3e54f80] Opening 'https://tv.vodu.me:1995/kass/kass3/tracks-v1a1/2025/08/04/19/56/45-10420.ts' for reading
[hls @ 0000022dc3e54f80] Opening 'https://tv.vodu.me:1995/kass/kass3/tracks-v1a1/2025/08/04/19/56/55-10400.ts' for reading
Input #0, hls, from 'https://tv.vodu.me:1995/kass/kass3/tracks-v1a1/mono.m3u8':
  Duration: N/A, start: 81874.243644, bitrate: N/A
  Program 0 
    Metadata:
      variant_bitrate : 0
  Stream #0:0: Video: h264 (High) ([27][0][0][0] / 0x001B), yuv420p(tv, bt709), 1920x1080 [SAR 1:1 DAR 16:9], 24 fps, 50 tbr, 90k tbn, start 81874.243644
    Metadata:
      variant_bitrate : 0
  Stream #0:1(eng): Audio: aac (LC) ([15][0][0][0] / 0x000F), 44100 Hz, stereo, fltp, start 81874.251367
    Metadata:
      variant_bitrate : 0
Stream mapping:
  Stream #0:0 -> #0:0 (copy)
  Stream #0:1 -> #0:1 (copy)
Output #0, hls, to 'live\channel_4\stream.m3u8':
  Metadata:
    encoder         : Lavf62.1.103
  Stream #0:0: Video: h264 (High) ([27][0][0][0] / 0x001B), yuv420p(tv, bt709), 1920x1080 [SAR 1:1 DAR 16:9], q=2-31, 24 fps, 50 tbr, 90k tbn
    Metadata:
      variant_bitrate : 0
  Stream #0:1(eng): Audio: aac (LC) ([15][0][0][0] / 0x000F), 44100 Hz, stereo, fltp
    Metadata:
      variant_bitrate : 0
Press [q] to stop, [?] for help
[vist#0:0/h264 @ 0000022dc4a3f2c0] Resumed reading at pts 0.000 with rate 1.050 after a lag of 0.500s
frame=   13 fps=0.0 q=-1.0 size=N/A time=00:00:00.50 bitrate=N/A speed=   1x elapsed=0:00:00.50    frame=   25 fps= 25 q=-1.0 size=N/A time=00:00:01.04 bitrate=N/A speed=1.02x elapsed=0:00:01.01    frame=   39 fps= 25 q=-1.0 size=N/A time=00:00:01.58 bitrate=N/A speed=1.03x elapsed=0:00:01.53    frame=   52 fps= 25 q=-1.0 size=N/A time=00:00:02.12 bitrate=N/A speed=1.04x elapsed=0:00:02.04    frame=   65 fps= 25 q=-1.0 size=N/A time=00:00:02.70 bitrate=N/A speed=1.05x elapsed=0:00:02.56    frame=   78 fps= 25 q=-1.0 size=N/A time=00:00:03.20 bitrate=N/A speed=1.04x elapsed=0:00:03.07    frame=   90 fps= 25 q=-1.0 size=N/A time=00:00:03.74 bitrate=N/A speed=1.04x elapsed=0:00:03.59    frame=  104 fps= 25 q=-1.0 size=N/A time=00:00:04.32 bitrate=N/A speed=1.05x elapsed=0:00:04.11    frame=  117 fps= 25 q=-1.0 size=N/A time=00:00:04.82 bitrate=N/A speed=1.04x elapsed=0:00:04.62    frame=  129 fps= 25 q=-1.0 size=N/A time=00:00:05.36 bitrate=N/A speed=1.04x elapsed=0:00:05.14    frame=  142 fps= 25 q=-1.0 size=N/A time=00:00:05.92 bitrate=N/A speed=1.05x elapsed=0:00:05.65    frame=  155 fps= 25 q=-1.0 size=N/A time=00:00:06.46 bitrate=N/A speed=1.05x elapsed=0:00:06.17    frame=  169 fps= 25 q=-1.0 size=N/A time=00:00:07.00 bitrate=N/A speed=1.05x elapsed=0:00:06.68    frame=  181 fps= 25 q=-1.0 size=N/A time=00:00:07.54 bitrate=N/A speed=1.05x elapsed=0:00:07.20    frame=  194 fps= 25 q=-1.0 size=N/A time=00:00:08.08 bitrate=N/A speed=1.05x elapsed=0:00:07.72    frame=  208 fps= 25 q=-1.0 size=N/A time=00:00:08.62 bitrate=N/A speed=1.05x elapsed=0:00:08.23    frame=  221 fps= 25 q=-1.0 size=N/A time=00:00:09.20 bitrate=N/A speed=1.05x elapsed=0:00:08.75    frame=  233 fps= 25 q=-1.0 size=N/A time=00:00:09.70 bitrate=N/A speed=1.05x elapsed=0:00:09.26    frame=  247 fps= 25 q=-1.0 size=N/A time=00:00:10.28 bitrate=N/A speed=1.05x elapsed=0:00:09.78    [https @ 0000022dc3f1a200] Opening 'https://tv.vodu.me:1995/kass/kass3/tracks-v1a1/2025/08/04/19/57/06-10420.ts' for reading
[hls @ 0000022dc4ad1cc0] Opening 'live\channel_4\stream0.ts' for writing
[hls @ 0000022dc4ad1cc0] Opening 'live\channel_4\stream.m3u8.tmp' for writing
frame=  259 fps= 25 q=-1.0 size=N/A time=00:00:10.78 bitrate=N/A speed=1.05x elapsed=0:00:10.29    frame=  272 fps= 25 q=-1.0 size=N/A time=00:00:11.28 bitrate=N/A speed=1.04x elapsed=0:00:10.81    frame=  284 fps= 25 q=-1.0 size=N/A time=00:00:11.82 bitrate=N/A speed=1.04x elapsed=0:00:11.33    frame=  296 fps= 25 q=-1.0 size=N/A time=00:00:12.32 bitrate=N/A speed=1.04x elapsed=0:00:11.84    frame=  308 fps= 25 q=-1.0 size=N/A time=00:00:12.82 bitrate=N/A speed=1.04x elapsed=0:00:12.36    frame=  321 fps= 25 q=-1.0 size=N/A time=00:00:13.36 bitrate=N/A speed=1.04x elapsed=0:00:12.87    frame=  333 fps= 25 q=-1.0 size=N/A time=00:00:13.86 bitrate=N/A speed=1.04x elapsed=0:00:13.39    frame=  346 fps= 25 q=-1.0 size=N/A time=00:00:14.36 bitrate=N/A speed=1.03x elapsed=0:00:13.90    frame=  358 fps= 25 q=-1.0 size=N/A time=00:00:14.92 bitrate=N/A speed=1.03x elapsed=0:00:14.42    frame=  370 fps= 25 q=-1.0 size=N/A time=00:00:15.42 bitrate=N/A speed=1.03x elapsed=0:00:14.93    frame=  383 fps= 25 q=-1.0 size=N/A time=00:00:15.92 bitrate=N/A speed=1.03x elapsed=0:00:15.45    frame=  395 fps= 25 q=-1.0 size=N/A time=00:00:16.46 bitrate=N/A speed=1.03x elapsed=0:00:15.97    frame=  408 fps= 25 q=-1.0 size=N/A time=00:00:16.96 bitrate=N/A speed=1.03x elapsed=0:00:16.48    frame=  420 fps= 25 q=-1.0 size=N/A time=00:00:17.50 bitrate=N/A speed=1.03x elapsed=0:00:17.00    frame=  432 fps= 25 q=-1.0 size=N/A time=00:00:18.00 bitrate=N/A speed=1.03x elapsed=0:00:17.51    frame=  444 fps= 25 q=-1.0 size=N/A time=00:00:18.50 bitrate=N/A speed=1.03x elapsed=0:00:18.03    frame=  457 fps= 25 q=-1.0 size=N/A time=00:00:19.04 bitrate=N/A speed=1.03x elapsed=0:00:18.54    frame=  470 fps= 25 q=-1.0 size=N/A time=00:00:19.54 bitrate=N/A speed=1.03x elapsed=0:00:19.06    frame=  482 fps= 25 q=-1.0 size=N/A time=00:00:20.08 bitrate=N/A speed=1.03x elapsed=0:00:19.57    frame=  494 fps= 25 q=-1.0 size=N/A time=00:00:20.58 bitrate=N/A speed=1.02x elapsed=0:00:20.09    [https @ 0000022dc4397180] Opening 'https://tv.vodu.me:1995/kass/kass3/tracks-v1a1/2025/08/04/19/57/16-10420.ts' for reading
[hls @ 0000022dc4ad1cc0] Opening 'live\channel_4\stream1.ts' for writing
[hls @ 0000022dc4ad1cc0] Opening 'live\channel_4\stream.m3u8.tmp' for writing
frame=  507 fps= 25 q=-1.0 size=N/A time=00:00:21.08 bitrate=N/A speed=1.02x elapsed=0:00:20.61    frame=  519 fps= 25 q=-1.0 size=N/A time=00:00:21.62 bitrate=N/A speed=1.02x elapsed=0:00:21.12    frame=  531 fps= 25 q=-1.0 size=N/A time=00:00:22.12 bitrate=N/A speed=1.02x elapsed=0:00:21.64    frame=  544 fps= 25 q=-1.0 size=N/A time=00:00:22.66 bitrate=N/A speed=1.02x elapsed=0:00:22.15    frame=  557 fps= 25 q=-1.0 size=N/A time=00:00:23.16 bitrate=N/A speed=1.02x elapsed=0:00:22.67    frame=  569 fps= 25 q=-1.0 size=N/A time=00:00:23.66 bitrate=N/A speed=1.02x elapsed=0:00:23.18    frame=  581 fps= 25 q=-1.0 size=N/A time=00:00:24.20 bitrate=N/A speed=1.02x elapsed=0:00:23.70    frame=  593 fps= 24 q=-1.0 size=N/A time=00:00:24.70 bitrate=N/A speed=1.02x elapsed=0:00:24.22    frame=  606 fps= 24 q=-1.0 size=N/A time=00:00:25.24 bitrate=N/A speed=1.02x elapsed=0:00:24.73    frame=  618 fps= 24 q=-1.0 size=N/A time=00:00:25.74 bitrate=N/A speed=1.02x elapsed=0:00:25.25    frame=  630 fps= 24 q=-1.0 size=N/A time=00:00:26.24 bitrate=N/A speed=1.02x elapsed=0:00:25.76    frame=  643 fps= 24 q=-1.0 size=N/A time=00:00:26.78 bitrate=N/A speed=1.02x elapsed=0:00:26.28    frame=  655 fps= 24 q=-1.0 size=N/A time=00:00:27.28 bitrate=N/A speed=1.02x elapsed=0:00:26.79    frame=  668 fps= 24 q=-1.0 size=N/A time=00:00:27.82 bitrate=N/A speed=1.02x elapsed=0:00:27.31    frame=  680 fps= 24 q=-1.0 size=N/A time=00:00:28.32 bitrate=N/A speed=1.02x elapsed=0:00:27.82    frame=  692 fps= 24 q=-1.0 size=N/A time=00:00:28.82 bitrate=N/A speed=1.02x elapsed=0:00:28.34    frame=  704 fps= 24 q=-1.0 size=N/A time=00:00:29.32 bitrate=N/A speed=1.02x elapsed=0:00:28.86    frame=  717 fps= 24 q=-1.0 size=N/A time=00:00:29.86 bitrate=N/A speed=1.02x elapsed=0:00:29.37    frame=  729 fps= 24 q=-1.0 size=N/A time=00:00:30.36 bitrate=N/A speed=1.02x elapsed=0:00:29.89    frame=  741 fps= 24 q=-1.0 size=N/A time=00:00:30.86 bitrate=N/A speed=1.01x elapsed=0:00:30.40    [https @ 0000022dc3f1a200] Opening 'https://tv.vodu.me:1995/kass/kass3/tracks-v1a1/2025/08/04/19/57/27-10420.ts' for reading
[hls @ 0000022dc4ad1cc0] Opening 'live\channel_4\stream2.ts' for writing
[hls @ 0000022dc4ad1cc0] Opening 'live\channel_4\stream.m3u8.tmp' for writing
frame=  754 fps= 24 q=-1.0 size=N/A time=00:00:31.42 bitrate=N/A speed=1.02x elapsed=0:00:30.92    frame=  766 fps= 24 q=-1.0 size=N/A time=00:00:31.92 bitrate=N/A speed=1.02x elapsed=0:00:31.43    frame=  779 fps= 24 q=-1.0 size=N/A time=00:00:32.46 bitrate=N/A speed=1.02x elapsed=0:00:31.95    frame=  791 fps= 24 q=-1.0 size=N/A time=00:00:32.96 bitrate=N/A speed=1.02x elapsed=0:00:32.47    frame=  804 fps= 24 q=-1.0 size=N/A time=00:00:33.46 bitrate=N/A speed=1.01x elapsed=0:00:32.98    frame=  816 fps= 24 q=-1.0 size=N/A time=00:00:34.00 bitrate=N/A speed=1.01x elapsed=0:00:33.50    frame=  828 fps= 24 q=-1.0 size=N/A time=00:00:34.50 bitrate=N/A speed=1.01x elapsed=0:00:34.01    frame=  841 fps= 24 q=-1.0 size=N/A time=00:00:35.04 bitrate=N/A speed=1.01x elapsed=0:00:34.53    frame=  853 fps= 24 q=-1.0 size=N/A time=00:00:35.54 bitrate=N/A speed=1.01x elapsed=0:00:35.04    frame=  866 fps= 24 q=-1.0 size=N/A time=00:00:36.04 bitrate=N/A speed=1.01x elapsed=0:00:35.56    frame=  878 fps= 24 q=-1.0 size=N/A time=00:00:36.54 bitrate=N/A speed=1.01x elapsed=0:00:36.08    frame=  890 fps= 24 q=-1.0 size=N/A time=00:00:37.08 bitrate=N/A speed=1.01x elapsed=0:00:36.59    frame=  903 fps= 24 q=-1.0 size=N/A time=00:00:37.62 bitrate=N/A speed=1.01x elapsed=0:00:37.11    frame=  915 fps= 24 q=-1.0 size=N/A time=00:00:38.12 bitrate=N/A speed=1.01x elapsed=0:00:37.62    frame=  928 fps= 24 q=-1.0 size=N/A time=00:00:38.62 bitrate=N/A speed=1.01x elapsed=0:00:38.14    frame=  939 fps= 24 q=-1.0 size=N/A time=00:00:39.12 bitrate=N/A speed=1.01x elapsed=0:00:38.65    frame=  952 fps= 24 q=-1.0 size=N/A time=00:00:39.66 bitrate=N/A speed=1.01x elapsed=0:00:39.17    frame=  965 fps= 24 q=-1.0 size=N/A time=00:00:40.20 bitrate=N/A speed=1.01x elapsed=0:00:39.68    frame=  977 fps= 24 q=-1.0 size=N/A time=00:00:40.70 bitrate=N/A speed=1.01x elapsed=0:00:40.20    frame=  990 fps= 24 q=-1.0 size=N/A time=00:00:41.20 bitrate=N/A speed=1.01x elapsed=0:00:40.72    [https @ 0000022dc4294100] Opening 'https://tv.vodu.me:1995/kass/kass3/tracks-v1a1/mono.m3u8' for reading
[https @ 0000022dc4397180] Opening 'https://tv.vodu.me:1995/kass/kass3/tracks-v1a1/2025/08/04/19/57/37-10420.ts' for reading
[hls @ 0000022dc4ad1cc0] Opening 'live\channel_4\stream3.ts' for writing
[hls @ 0000022dc4ad1cc0] Opening 'live\channel_4\stream.m3u8.tmp' for writing
frame= 1001 fps= 24 q=-1.0 size=N/A time=00:00:41.70 bitrate=N/A speed=1.01x elapsed=0:00:41.23    frame= 1014 fps= 24 q=-1.0 size=N/A time=00:00:42.24 bitrate=N/A speed=1.01x elapsed=0:00:41.75    frame= 1026 fps= 24 q=-1.0 size=N/A time=00:00:42.74 bitrate=N/A speed=1.01x elapsed=0:00:42.26    frame= 1039 fps= 24 q=-1.0 size=N/A time=00:00:43.28 bitrate=N/A speed=1.01x elapsed=0:00:42.78    frame= 1052 fps= 24 q=-1.0 size=N/A time=00:00:43.78 bitrate=N/A speed=1.01x elapsed=0:00:43.29    frame= 1063 fps= 24 q=-1.0 size=N/A time=00:00:44.28 bitrate=N/A speed=1.01x elapsed=0:00:43.81    frame= 1076 fps= 24 q=-1.0 size=N/A time=00:00:44.82 bitrate=N/A speed=1.01x elapsed=0:00:44.33    frame= 1088 fps= 24 q=-1.0 size=N/A time=00:00:45.32 bitrate=N/A speed=1.01x elapsed=0:00:44.84    frame= 1100 fps= 24 q=-1.0 size=N/A time=00:00:45.82 bitrate=N/A speed=1.01x elapsed=0:00:45.36    frame= 1112 fps= 24 q=-1.0 size=N/A time=00:00:46.32 bitrate=N/A speed=1.01x elapsed=0:00:45.87    frame= 1125 fps= 24 q=-1.0 size=N/A time=00:00:46.86 bitrate=N/A speed=1.01x elapsed=0:00:46.39    frame= 1138 fps= 24 q=-1.0 size=N/A time=00:00:47.42 bitrate=N/A speed=1.01x elapsed=0:00:46.90    frame= 1150 fps= 24 q=-1.0 size=N/A time=00:00:47.92 bitrate=N/A speed=1.01x elapsed=0:00:47.42    frame= 1162 fps= 24 q=-1.0 size=N/A time=00:00:48.42 bitrate=N/A speed=1.01x elapsed=0:00:47.93    frame= 1175 fps= 24 q=-1.0 size=N/A time=00:00:48.92 bitrate=N/A speed=1.01x elapsed=0:00:48.45    frame= 1187 fps= 24 q=-1.0 size=N/A time=00:00:49.46 bitrate=N/A speed=1.01x elapsed=0:00:48.97    frame= 1200 fps= 24 q=-1.0 size=N/A time=00:00:50.00 bitrate=N/A speed=1.01x elapsed=0:00:49.48    frame= 1212 fps= 24 q=-1.0 size=N/A time=00:00:50.50 bitrate=N/A speed=1.01x elapsed=0:00:50.00    frame= 1224 fps= 24 q=-1.0 size=N/A time=00:00:51.00 bitrate=N/A speed=1.01x elapsed=0:00:50.51    frame= 1236 fps= 24 q=-1.0 size=N/A time=00:00:51.50 bitrate=N/A speed=1.01x elapsed=0:00:51.03    frame= 1249 fps= 24 q=-1.0 size=N/A time=00:00:52.04 bitrate=N/A speed=1.01x elapsed=0:00:51.54    [https @ 0000022dc3f1a200] Opening 'https://tv.vodu.me:1995/kass/kass3/tracks-v1a1/2025/08/04/19/57/47-10420.ts' for reading
[hls @ 0000022dc4ad1cc0] Opening 'live\channel_4\stream4.ts' for writing
[hls @ 0000022dc4ad1cc0] Opening 'live\channel_4\stream.m3u8.tmp' for writing
[https @ 0000022dc4294100] Opening 'https://tv.vodu.me:1995/kass/kass3/tracks-v1a1/mono.m3u8' for reading
frame= 1261 fps= 24 q=-1.0 size=N/A time=00:00:52.54 bitrate=N/A speed=1.01x elapsed=0:00:52.06    frame= 1274 fps= 24 q=-1.0 size=N/A time=00:00:53.08 bitrate=N/A speed=1.01x elapsed=0:00:52.58    frame= 1286 fps= 24 q=-1.0 size=N/A time=00:00:53.58 bitrate=N/A speed=1.01x elapsed=0:00:53.09    frame= 1298 fps= 24 q=-1.0 size=N/A time=00:00:54.08 bitrate=N/A speed=1.01x elapsed=0:00:53.61    frame= 1311 fps= 24 q=-1.0 size=N/A time=00:00:54.62 bitrate=N/A speed=1.01x elapsed=0:00:54.12    frame= 1323 fps= 24 q=-1.0 size=N/A time=00:00:55.12 bitrate=N/A speed=1.01x elapsed=0:00:54.64    frame= 1336 fps= 24 q=-1.0 size=N/A time=00:00:55.66 bitrate=N/A speed=1.01x elapsed=0:00:55.15    frame= 1348 fps= 24 q=-1.0 size=N/A time=00:00:56.16 bitrate=N/A speed=1.01x elapsed=0:00:55.67    frame= 1360 fps= 24 q=-1.0 size=N/A time=00:00:56.66 bitrate=N/A speed=1.01x elapsed=0:00:56.18    frame= 1373 fps= 24 q=-1.0 size=N/A time=00:00:57.16 bitrate=N/A speed=1.01x elapsed=0:00:56.70    frame= 1385 fps= 24 q=-1.0 size=N/A time=00:00:57.70 bitrate=N/A speed=1.01x elapsed=0:00:57.22    frame= 1398 fps= 24 q=-1.0 size=N/A time=00:00:58.24 bitrate=N/A speed=1.01x elapsed=0:00:57.73    frame= 1410 fps= 24 q=-1.0 size=N/A time=00:00:58.74 bitrate=N/A speed=1.01x elapsed=0:00:58.25    frame= 1422 fps= 24 q=-1.0 size=N/A time=00:00:59.24 bitrate=N/A speed=1.01x elapsed=0:00:58.76    frame= 1435 fps= 24 q=-1.0 size=N/A time=00:00:59.74 bitrate=N/A speed=1.01x elapsed=0:00:59.28    frame= 1447 fps= 24 q=-1.0 size=N/A time=00:01:00.28 bitrate=N/A speed=1.01x elapsed=0:00:59.79    frame= 1460 fps= 24 q=-1.0 size=N/A time=00:01:00.82 bitrate=N/A speed=1.01x elapsed=0:01:00.31    frame= 1472 fps= 24 q=-1.0 size=N/A time=00:01:01.32 bitrate=N/A speed=1.01x elapsed=0:01:00.82    frame= 1484 fps= 24 q=-1.0 size=N/A time=00:01:01.82 bitrate=N/A speed=1.01x elapsed=0:01:01.34    frame= 1496 fps= 24 q=-1.0 size=N/A time=00:01:02.32 bitrate=N/A speed=1.01x elapsed=0:01:01.86    [https @ 0000022dc4397180] Opening 'https://tv.vodu.me:1995/kass/kass3/tracks-v1a1/2025/08/04/19/57/58-10400.ts' for reading
[hls @ 0000022dc4ad1cc0] Opening 'live\channel_4\stream5.ts' for writing
[hls @ 0000022dc4ad1cc0] Opening 'live\channel_4\stream.m3u8.tmp' for writing
frame= 1509 fps= 24 q=-1.0 size=N/A time=00:01:02.86 bitrate=N/A speed=1.01x elapsed=0:01:02.37    frame= 1521 fps= 24 q=-1.0 size=N/A time=00:01:03.36 bitrate=N/A speed=1.01x elapsed=0:01:02.89    frame= 1534 fps= 24 q=-1.0 size=N/A time=00:01:03.86 bitrate=N/A speed=1.01x elapsed=0:01:03.40    frame= 1545 fps= 24 q=-1.0 size=N/A time=00:01:04.36 bitrate=N/A speed=1.01x elapsed=0:01:03.92    frame= 1558 fps= 24 q=-1.0 size=N/A time=00:01:04.92 bitrate=N/A speed=1.01x elapsed=0:01:04.43    frame= 1571 fps= 24 q=-1.0 size=N/A time=00:01:05.46 bitrate=N/A speed=1.01x elapsed=0:01:04.95    frame= 1583 fps= 24 q=-1.0 size=N/A time=00:01:05.96 bitrate=N/A speed=1.01x elapsed=0:01:05.47    frame= 1595 fps= 24 q=-1.0 size=N/A time=00:01:06.46 bitrate=N/A speed=1.01x elapsed=0:01:05.98    frame= 1608 fps= 24 q=-1.0 size=N/A time=00:01:06.96 bitrate=N/A speed=1.01x elapsed=0:01:06.50    frame= 1620 fps= 24 q=-1.0 size=N/A time=00:01:07.50 bitrate=N/A speed=1.01x elapsed=0:01:07.01    frame= 1633 fps= 24 q=-1.0 size=N/A time=00:01:08.04 bitrate=N/A speed=1.01x elapsed=0:01:07.53    frame= 1645 fps= 24 q=-1.0 size=N/A time=00:01:08.54 bitrate=N/A speed=1.01x elapsed=0:01:08.04    frame= 1657 fps= 24 q=-1.0 size=N/A time=00:01:09.04 bitrate=N/A speed=1.01x elapsed=0:01:08.56    frame= 1669 fps= 24 q=-1.0 size=N/A time=00:01:09.54 bitrate=N/A speed=1.01x elapsed=0:01:09.07    frame= 1682 fps= 24 q=-1.0 size=N/A time=00:01:10.08 bitrate=N/A speed=1.01x elapsed=0:01:09.59    frame= 1694 fps= 24 q=-1.0 size=N/A time=00:01:10.58 bitrate=N/A speed=1.01x elapsed=0:01:10.11    frame= 1707 fps= 24 q=-1.0 size=N/A time=00:01:11.12 bitrate=N/A speed=1.01x elapsed=0:01:10.62    frame= 1719 fps= 24 q=-1.0 size=N/A time=00:01:11.62 bitrate=N/A speed=1.01x elapsed=0:01:11.14    frame= 1731 fps= 24 q=-1.0 size=N/A time=00:01:12.12 bitrate=N/A speed=1.01x elapsed=0:01:11.65    frame= 1744 fps= 24 q=-1.0 size=N/A time=00:01:12.66 bitrate=N/A speed=1.01x elapsed=0:01:12.17    [https @ 0000022dc4294100] Opening 'https://tv.vodu.me:1995/kass/kass3/tracks-v1a1/mono.m3u8' for reading
[https @ 0000022dc3f1a200] Opening 'https://tv.vodu.me:1995/kass/kass3/tracks-v1a1/2025/08/04/19/58/08-10420.ts' for reading
[hls @ 0000022dc4ad1cc0] Opening 'live\channel_4\stream6.ts' for writing
[hls @ 0000022dc4ad1cc0] Opening 'live\channel_4\stream.m3u8.tmp' for writing
frame= 1756 fps= 24 q=-1.0 size=N/A time=00:01:13.16 bitrate=N/A speed=1.01x elapsed=0:01:12.68    frame= 1769 fps= 24 q=-1.0 size=N/A time=00:01:13.70 bitrate=N/A speed=1.01x elapsed=0:01:13.20    frame= 1781 fps= 24 q=-1.0 size=N/A time=00:01:14.20 bitrate=N/A speed=1.01x elapsed=0:01:13.72    frame= 1793 fps= 24 q=-1.0 size=N/A time=00:01:14.70 bitrate=N/A speed=1.01x elapsed=0:01:14.23    frame= 1806 fps= 24 q=-1.0 size=N/A time=00:01:15.24 bitrate=N/A speed=1.01x elapsed=0:01:14.75    frame= 1818 fps= 24 q=-1.0 size=N/A time=00:01:15.74 bitrate=N/A speed=1.01x elapsed=0:01:15.26    frame= 1831 fps= 24 q=-1.0 size=N/A time=00:01:16.28 bitrate=N/A speed=1.01x elapsed=0:01:15.78    frame= 1843 fps= 24 q=-1.0 size=N/A time=00:01:16.78 bitrate=N/A speed=1.01x elapsed=0:01:16.29    frame= 1856 fps= 24 q=-1.0 size=N/A time=00:01:17.28 bitrate=N/A speed=1.01x elapsed=0:01:16.81    frame= 1868 fps= 24 q=-1.0 size=N/A time=00:01:17.82 bitrate=N/A speed=1.01x elapsed=0:01:17.32    frame= 1880 fps= 24 q=-1.0 size=N/A time=00:01:18.32 bitrate=N/A speed=1.01x elapsed=0:01:17.84    frame= 1892 fps= 24 q=-1.0 size=N/A time=00:01:18.82 bitrate=N/A speed=1.01x elapsed=0:01:18.36    frame= 1905 fps= 24 q=-1.0 size=N/A time=00:01:19.32 bitrate=N/A speed=1.01x elapsed=0:01:18.87    frame= 1917 fps= 24 q=-1.0 size=N/A time=00:01:19.86 bitrate=N/A speed=1.01x elapsed=0:01:19.39    frame= 1929 fps= 24 q=-1.0 size=N/A time=00:01:20.36 bitrate=N/A speed=1.01x elapsed=0:01:19.90    frame= 1942 fps= 24 q=-1.0 size=N/A time=00:01:20.92 bitrate=N/A speed=1.01x elapsed=0:01:20.42    frame= 1954 fps= 24 q=-1.0 size=N/A time=00:01:21.42 bitrate=N/A speed=1.01x elapsed=0:01:20.94    frame= 1967 fps= 24 q=-1.0 size=N/A time=00:01:21.92 bitrate=N/A speed=1.01x elapsed=0:01:21.46    frame= 1979 fps= 24 q=-1.0 size=N/A time=00:01:22.46 bitrate=N/A speed=1.01x elapsed=0:01:21.96    frame= 1991 fps= 24 q=-1.0 size=N/A time=00:01:22.96 bitrate=N/A speed=1.01x elapsed=0:01:22.48    [https @ 0000022dc4397180] Opening 'https://tv.vodu.me:1995/kass/kass3/tracks-v1a1/2025/08/04/19/58/19-10420.ts' for reading
[https @ 0000022dc4294100] Opening 'https://tv.vodu.me:1995/kass/kass3/tracks-v1a1/mono.m3u8' for reading
[hls @ 0000022dc4ad1cc0] Opening 'live\channel_4\stream7.ts' for writing
[hls @ 0000022dc4ad1cc0] Opening 'live\channel_4\stream.m3u8.tmp' for writing
frame= 2004 fps= 24 q=-1.0 size=N/A time=00:01:23.50 bitrate=N/A speed=1.01x elapsed=0:01:22.99    frame= 2017 fps= 24 q=-1.0 size=N/A time=00:01:24.00 bitrate=N/A speed=1.01x elapsed=0:01:23.51    frame= 2028 fps= 24 q=-1.0 size=N/A time=00:01:24.50 bitrate=N/A speed=1.01x elapsed=0:01:24.02    frame= 2041 fps= 24 q=-1.0 size=N/A time=00:01:25.04 bitrate=N/A speed=1.01x elapsed=0:01:24.54    frame= 2053 fps= 24 q=-1.0 size=N/A time=00:01:25.54 bitrate=N/A speed=1.01x elapsed=0:01:25.05    frame= 2066 fps= 24 q=-1.0 size=N/A time=00:01:26.08 bitrate=N/A speed=1.01x elapsed=0:01:25.57    frame= 2078 fps= 24 q=-1.0 size=N/A time=00:01:26.58 bitrate=N/A speed=1.01x elapsed=0:01:26.09    frame= 2091 fps= 24 q=-1.0 size=N/A time=00:01:27.08 bitrate=N/A speed=1.01x elapsed=0:01:26.60    frame= 2103 fps= 24 q=-1.0 size=N/A time=00:01:27.62 bitrate=N/A speed=1.01x elapsed=0:01:27.12    frame= 2115 fps= 24 q=-1.0 size=N/A time=00:01:28.12 bitrate=N/A speed=1.01x elapsed=0:01:27.63    frame= 2128 fps= 24 q=-1.0 size=N/A time=00:01:28.66 bitrate=N/A speed=1.01x elapsed=0:01:28.15    frame= 2140 fps= 24 q=-1.0 size=N/A time=00:01:29.16 bitrate=N/A speed=1.01x elapsed=0:01:28.66    frame= 2152 fps= 24 q=-1.0 size=N/A time=00:01:29.66 bitrate=N/A speed=1.01x elapsed=0:01:29.18    frame= 2165 fps= 24 q=-1.0 size=N/A time=00:01:30.20 bitrate=N/A speed=1.01x elapsed=0:01:29.70    frame= 2177 fps= 24 q=-1.0 size=N/A time=00:01:30.70 bitrate=N/A speed=1.01x elapsed=0:01:30.21    frame= 2189 fps= 24 q=-1.0 size=N/A time=00:01:31.20 bitrate=N/A speed=1.01x elapsed=0:01:30.73    frame= 2202 fps= 24 q=-1.0 size=N/A time=00:01:31.74 bitrate=N/A speed=1.01x elapsed=0:01:31.24    frame= 2214 fps= 24 q=-1.0 size=N/A time=00:01:32.24 bitrate=N/A speed=1.01x elapsed=0:01:31.76    frame= 2227 fps= 24 q=-1.0 size=N/A time=00:01:32.78 bitrate=N/A speed=1.01x elapsed=0:01:32.27    frame= 2239 fps= 24 q=-1.0 size=N/A time=00:01:33.28 bitrate=N/A speed=1.01x elapsed=0:01:32.79    [https @ 0000022dc3f1a200] Opening 'https://tv.vodu.me:1995/kass/kass3/tracks-v1a1/2025/08/04/19/58/29-10420.ts' for reading
[hls @ 0000022dc4ad1cc0] Opening 'live\channel_4\stream8.ts' for writing
[hls @ 0000022dc4ad1cc0] Opening 'live\channel_4\stream.m3u8.tmp' for writing
frame= 2251 fps= 24 q=-1.0 size=N/A time=00:01:33.78 bitrate=N/A speed=1.01x elapsed=0:01:33.30    frame= 2264 fps= 24 q=-1.0 size=N/A time=00:01:34.32 bitrate=N/A speed=1.01x elapsed=0:01:33.82    frame= 2276 fps= 24 q=-1.0 size=N/A time=00:01:34.82 bitrate=N/A speed=1.01x elapsed=0:01:34.34    frame= 2288 fps= 24 q=-1.0 size=N/A time=00:01:35.32 bitrate=N/A speed=   1x elapsed=0:01:34.85    frame= 2301 fps= 24 q=-1.0 size=N/A time=00:01:35.86 bitrate=N/A speed=1.01x elapsed=0:01:35.37    frame= 2313 fps= 24 q=-1.0 size=N/A time=00:01:36.36 bitrate=N/A speed=   1x elapsed=0:01:35.88    frame= 2325 fps= 24 q=-1.0 size=N/A time=00:01:36.86 bitrate=N/A speed=   1x elapsed=0:01:36.40    frame= 2338 fps= 24 q=-1.0 size=N/A time=00:01:37.42 bitrate=N/A speed=1.01x elapsed=0:01:36.92    frame= 2350 fps= 24 q=-1.0 size=N/A time=00:01:37.92 bitrate=N/A speed=1.01x elapsed=0:01:37.43    frame= 2363 fps= 24 q=-1.0 size=N/A time=00:01:38.46 bitrate=N/A speed=1.01x elapsed=0:01:37.95    frame= 2375 fps= 24 q=-1.0 size=N/A time=00:01:38.96 bitrate=N/A speed=   1x elapsed=0:01:38.47    frame= 2387 fps= 24 q=-1.0 size=N/A time=00:01:39.46 bitrate=N/A speed=   1x elapsed=0:01:38.98    frame= 2400 fps= 24 q=-1.0 size=N/A time=00:01:39.96 bitrate=N/A speed=   1x elapsed=0:01:39.49    frame= 2412 fps= 24 q=-1.0 size=N/A time=00:01:40.50 bitrate=N/A speed=   1x elapsed=0:01:40.01    frame= 2424 fps= 24 q=-1.0 size=N/A time=00:01:41.00 bitrate=N/A speed=   1x elapsed=0:01:40.53    frame= 2437 fps= 24 q=-1.0 size=N/A time=00:01:41.54 bitrate=N/A speed=   1x elapsed=0:01:41.04    frame= 2449 fps= 24 q=-1.0 size=N/A time=00:01:42.04 bitrate=N/A speed=   1x elapsed=0:01:41.56    frame= 2462 fps= 24 q=-1.0 size=N/A time=00:01:42.58 bitrate=N/A speed=   1x elapsed=0:01:42.08    frame= 2474 fps= 24 q=-1.0 size=N/A time=00:01:43.08 bitrate=N/A speed=   1x elapsed=0:01:42.59    frame= 2487 fps= 24 q=-1.0 size=N/A time=00:01:43.58 bitrate=N/A speed=   1x elapsed=0:01:43.11    frame= 2499 fps= 24 q=-1.0 size=N/A time=00:01:44.12 bitrate=N/A speed=   1x elapsed=0:01:43.62    [https @ 0000022dc4294100] Opening 'https://tv.vodu.me:1995/kass/kass3/tracks-v1a1/mono.m3u8' for reading
[https @ 0000022dc4397180] Opening 'https://tv.vodu.me:1995/kass/kass3/tracks-v1a1/2025/08/04/19/58/39-14660.ts' for reading
[hls @ 0000022dc4ad1cc0] Opening 'live\channel_4\stream9.ts' for writing
[hls @ 0000022dc4ad1cc0] Opening 'live\channel_4\stream.m3u8.tmp' for writing
frame= 2511 fps= 24 q=-1.0 size=N/A time=00:01:44.62 bitrate=N/A speed=   1x elapsed=0:01:44.14    frame= 2524 fps= 24 q=-1.0 size=N/A time=00:01:45.16 bitrate=N/A speed=   1x elapsed=0:01:44.65    frame= 2537 fps= 24 q=-1.0 size=N/A time=00:01:45.66 bitrate=N/A speed=   1x elapsed=0:01:45.17    frame= 2548 fps= 24 q=-1.0 size=N/A time=00:01:46.16 bitrate=N/A speed=   1x elapsed=0:01:45.69    frame= 2561 fps= 24 q=-1.0 size=N/A time=00:01:46.70 bitrate=N/A speed=   1x elapsed=0:01:46.20    frame= 2573 fps= 24 q=-1.0 size=N/A time=00:01:47.20 bitrate=N/A speed=   1x elapsed=0:01:46.72    frame= 2586 fps= 24 q=-1.0 size=N/A time=00:01:47.74 bitrate=N/A speed=   1x elapsed=0:01:47.23    frame= 2598 fps= 24 q=-1.0 size=N/A time=00:01:48.24 bitrate=N/A speed=   1x elapsed=0:01:47.75    frame= 2610 fps= 24 q=-1.0 size=N/A time=00:01:48.74 bitrate=N/A speed=   1x elapsed=0:01:48.26    frame= 2623 fps= 24 q=-1.0 size=N/A time=00:01:49.28 bitrate=N/A speed=   1x elapsed=0:01:48.78    frame= 2635 fps= 24 q=-1.0 size=N/A time=00:01:49.78 bitrate=N/A speed=   1x elapsed=0:01:49.29    frame= 2648 fps= 24 q=-1.0 size=N/A time=00:01:50.32 bitrate=N/A speed=   1x elapsed=0:01:49.81    frame= 2660 fps= 24 q=-1.0 size=N/A time=00:01:50.82 bitrate=N/A speed=   1x elapsed=0:01:50.33    frame= 2672 fps= 24 q=-1.0 size=N/A time=00:01:51.32 bitrate=N/A speed=   1x elapsed=0:01:50.84    frame= 2685 fps= 24 q=-1.0 size=N/A time=00:01:51.82 bitrate=N/A speed=   1x elapsed=0:01:51.36    frame= 2697 fps= 24 q=-1.0 size=N/A time=00:01:52.36 bitrate=N/A speed=   1x elapsed=0:01:51.87    frame= 2709 fps= 24 q=-1.0 size=N/A time=00:01:52.86 bitrate=N/A speed=   1x elapsed=0:01:52.39    frame= 2722 fps= 24 q=-1.0 size=N/A time=00:01:53.36 bitrate=N/A speed=   1x elapsed=0:01:52.91    frame= 2734 fps= 24 q=-1.0 size=N/A time=00:01:53.92 bitrate=N/A speed=   1x elapsed=0:01:53.41    frame= 2746 fps= 24 q=-1.0 size=N/A time=00:01:54.42 bitrate=N/A speed=   1x elapsed=0:01:53.93    [hls @ 0000022dc4ad1cc0] Opening 'live\channel_4\stream10.ts' for writing
[hls @ 0000022dc4ad1cc0] Opening 'live\channel_4\stream.m3u8.tmp' for writing
frame= 2759 fps= 24 q=-1.0 size=N/A time=00:01:54.96 bitrate=N/A speed=   1x elapsed=0:01:54.45    frame= 2771 fps= 24 q=-1.0 size=N/A time=00:01:55.46 bitrate=N/A speed=   1x elapsed=0:01:54.97    frame= 2783 fps= 24 q=-1.0 size=N/A time=00:01:55.96 bitrate=N/A speed=   1x elapsed=0:01:55.49    frame= 2796 fps= 24 q=-1.0 size=N/A time=00:01:56.50 bitrate=N/A speed=   1x elapsed=0:01:55.99    frame= 2808 fps= 24 q=-1.0 size=N/A time=00:01:57.00 bitrate=N/A speed=   1x elapsed=0:01:56.51    frame= 2821 fps= 24 q=-1.0 size=N/A time=00:01:57.54 bitrate=N/A speed=   1x elapsed=0:01:57.04    frame= 2833 fps= 24 q=-1.0 size=N/A time=00:01:58.04 bitrate=N/A speed=   1x elapsed=0:01:57.54    frame= 2845 fps= 24 q=-1.0 size=N/A time=00:01:58.54 bitrate=N/A speed=   1x elapsed=0:01:58.06    [vost#0:0/copy @ 0000022dc4457dc0] Non-monotonic DTS; previous: 10693800, current: 10693800; changing to 10693801. This may result in incorrect timestamps in the output file.
[hls @ 0000022dc4ad1cc0] Opening 'live\channel_4\stream11.ts' for writing
[hls @ 0000022dc4ad1cc0] Opening 'live\channel_4\stream.m3u8.tmp' for writing
frame= 2859 fps= 24 q=-1.0 size=N/A time=00:01:59.06 bitrate=N/A speed=   1x elapsed=0:01:58.57    frame= 2872 fps= 24 q=-1.0 size=N/A time=00:01:59.60 bitrate=N/A speed=   1x elapsed=0:01:59.09    frame= 2884 fps= 24 q=-1.0 size=N/A time=00:02:00.10 bitrate=N/A speed=   1x elapsed=0:01:59.61    frame= 2896 fps= 24 q=-1.0 size=N/A time=00:02:00.60 bitrate=N/A speed=   1x elapsed=0:02:00.12    frame= 2908 fps= 24 q=-1.0 size=N/A time=00:02:01.10 bitrate=N/A speed=   1x elapsed=0:02:00.64    frame= 2921 fps= 24 q=-1.0 size=N/A time=00:02:01.64 bitrate=N/A speed=   1x elapsed=0:02:01.15    frame= 2933 fps= 24 q=-1.0 size=N/A time=00:02:02.14 bitrate=N/A speed=   1x elapsed=0:02:01.67    frame= 2945 fps= 24 q=-1.0 size=N/A time=00:02:02.64 bitrate=N/A speed=   1x elapsed=0:02:02.18    frame= 2958 fps= 24 q=-1.0 size=N/A time=00:02:03.20 bitrate=N/A speed=   1x elapsed=0:02:02.70    frame= 2970 fps= 24 q=-1.0 size=N/A time=00:02:03.70 bitrate=N/A speed=   1x elapsed=0:02:03.22    frame= 2983 fps= 24 q=-1.0 size=N/A time=00:02:04.24 bitrate=N/A speed=   1x elapsed=0:02:03.73    frame= 2996 fps= 24 q=-1.0 size=N/A time=00:02:04.74 bitrate=N/A speed=   1x elapsed=0:02:04.25    frame= 3008 fps= 24 q=-1.0 size=N/A time=00:02:05.24 bitrate=N/A speed=   1x elapsed=0:02:04.76    frame= 3019 fps= 24 q=-1.0 size=N/A time=00:02:05.74 bitrate=N/A speed=   1x elapsed=0:02:05.28    frame= 3032 fps= 24 q=-1.0 size=N/A time=00:02:06.28 bitrate=N/A speed=   1x elapsed=0:02:05.79    frame= 3045 fps= 24 q=-1.0 size=N/A time=00:02:06.82 bitrate=N/A speed=   1x elapsed=0:02:06.32    frame= 3057 fps= 24 q=-1.0 size=N/A time=00:02:07.32 bitrate=N/A speed=   1x elapsed=0:02:06.82    frame= 3069 fps= 24 q=-1.0 size=N/A time=00:02:07.82 bitrate=N/A speed=   1x elapsed=0:02:07.34    frame= 3081 fps= 24 q=-1.0 size=N/A time=00:02:08.32 bitrate=N/A speed=   1x elapsed=0:02:07.85    frame= 3094 fps= 24 q=-1.0 size=N/A time=00:02:08.86 bitrate=N/A speed=   1x elapsed=0:02:08.37    [https @ 0000022dc4294100] Opening 'https://tv.vodu.me:1995/kass/kass3/tracks-v1a1/mono.m3u8' for reading
[https @ 0000022dc4397180] Opening 'https://tv.vodu.me:1995/kass/kass3/tracks-v1a1/2025/08/04/19/58/54-10420.ts' for reading
[https @ 0000022dc3f1a200] Opening 'https://tv.vodu.me:1995/kass/kass3/tracks-v1a1/2025/08/04/19/59/05-10400.ts' for reading
[hls @ 0000022dc4ad1cc0] Opening 'live\channel_4\stream12.ts' for writing
[hls @ 0000022dc4ad1cc0] Opening 'live\channel_4\stream.m3u8.tmp' for writing
frame= 3107 fps= 24 q=-1.0 size=N/A time=00:02:09.40 bitrate=N/A speed=   1x elapsed=0:02:08.89    frame= 3119 fps= 24 q=-1.0 size=N/A time=00:02:09.90 bitrate=N/A speed=   1x elapsed=0:02:09.40    frame= 3131 fps= 24 q=-1.0 size=N/A time=00:02:10.40 bitrate=N/A speed=   1x elapsed=0:02:09.92    frame= 3143 fps= 24 q=-1.0 size=N/A time=00:02:10.90 bitrate=N/A speed=   1x elapsed=0:02:10.43    frame= 3156 fps= 24 q=-1.0 size=N/A time=00:02:11.44 bitrate=N/A speed=   1x elapsed=0:02:10.95    frame= 3168 fps= 24 q=-1.0 size=N/A time=00:02:11.94 bitrate=N/A speed=   1x elapsed=0:02:11.46    frame= 3181 fps= 24 q=-1.0 size=N/A time=00:02:12.48 bitrate=N/A speed=   1x elapsed=0:02:11.98    frame= 3194 fps= 24 q=-1.0 size=N/A time=00:02:12.98 bitrate=N/A speed=   1x elapsed=0:02:12.49    frame= 3205 fps= 24 q=-1.0 size=N/A time=00:02:13.48 bitrate=N/A speed=   1x elapsed=0:02:13.01    frame= 3218 fps= 24 q=-1.0 size=N/A time=00:02:14.02 bitrate=N/A speed=   1x elapsed=0:02:13.53    frame= 3230 fps= 24 q=-1.0 size=N/A time=00:02:14.52 bitrate=N/A speed=   1x elapsed=0:02:14.04    frame= 3243 fps= 24 q=-1.0 size=N/A time=00:02:15.06 bitrate=N/A speed=   1x elapsed=0:02:14.56    frame= 3255 fps= 24 q=-1.0 size=N/A time=00:02:15.56 bitrate=N/A speed=   1x elapsed=0:02:15.07    